<svg id="wave" style="transform:rotate(180deg); transition: 0.3s" viewBox="0 0 1440 490" version="1.1" xmlns="http://www.w3.org/2000/svg"><defs><linearGradient id="sw-gradient-0" x1="0" x2="0" y1="1" y2="0"><stop stop-color="rgba(207, 80, 80, 1)" offset="0%"></stop><stop stop-color="rgba(207, 80, 80, 1)" offset="100%"></stop></linearGradient></defs><path style="transform:translate(0, 0px); opacity:1" fill="url(#sw-gradient-0)" d="M0,245L80,220.5C160,196,320,147,480,106.2C640,65,800,33,960,65.3C1120,98,1280,196,1440,212.3C1600,229,1760,163,1920,114.3C2080,65,2240,33,2400,73.5C2560,114,2720,229,2880,294C3040,359,3200,376,3360,392C3520,408,3680,425,3840,424.7C4000,425,4160,408,4320,343C4480,278,4640,163,4800,114.3C4960,65,5120,82,5280,138.8C5440,196,5600,294,5760,294C5920,294,6080,196,6240,171.5C6400,147,6560,196,6720,228.7C6880,261,7040,278,7200,302.2C7360,327,7520,359,7680,318.5C7840,278,8000,163,8160,114.3C8320,65,8480,82,8640,73.5C8800,65,8960,33,9120,65.3C9280,98,9440,196,9600,228.7C9760,261,9920,229,10080,212.3C10240,196,10400,196,10560,220.5C10720,245,10880,294,11040,294C11200,294,11360,245,11440,220.5L11520,196L11520,490L11440,490C11360,490,11200,490,11040,490C10880,490,10720,490,10560,490C10400,490,10240,490,10080,490C9920,490,9760,490,9600,490C9440,490,9280,490,9120,490C8960,490,8800,490,8640,490C8480,490,8320,490,8160,490C8000,490,7840,490,7680,490C7520,490,7360,490,7200,490C7040,490,6880,490,6720,490C6560,490,6400,490,6240,490C6080,490,5920,490,5760,490C5600,490,5440,490,5280,490C5120,490,4960,490,4800,490C4640,490,4480,490,4320,490C4160,490,4000,490,3840,490C3680,490,3520,490,3360,490C3200,490,3040,490,2880,490C2720,490,2560,490,2400,490C2240,490,2080,490,1920,490C1760,490,1600,490,1440,490C1280,490,1120,490,960,490C800,490,640,490,480,490C320,490,160,490,80,490L0,490Z"></path><defs><linearGradient id="sw-gradient-1" x1="0" x2="0" y1="1" y2="0"><stop stop-color="rgba(207, 80, 80, 1)" offset="0%"></stop><stop stop-color="rgba(207, 80, 80, 1)" offset="100%"></stop></linearGradient></defs><path style="transform:translate(0, 50px); opacity:0.9" fill="url(#sw-gradient-1)" d="M0,98L80,106.2C160,114,320,131,480,179.7C640,229,800,310,960,326.7C1120,343,1280,294,1440,294C1600,294,1760,343,1920,375.7C2080,408,2240,425,2400,367.5C2560,310,2720,180,2880,171.5C3040,163,3200,278,3360,302.2C3520,327,3680,261,3840,245C4000,229,4160,261,4320,236.8C4480,212,4640,131,4800,114.3C4960,98,5120,147,5280,147C5440,147,5600,98,5760,122.5C5920,147,6080,245,6240,310.3C6400,376,6560,408,6720,392C6880,376,7040,310,7200,302.2C7360,294,7520,343,7680,302.2C7840,261,8000,131,8160,73.5C8320,16,8480,33,8640,89.8C8800,147,8960,245,9120,253.2C9280,261,9440,180,9600,187.8C9760,196,9920,294,10080,302.2C10240,310,10400,229,10560,204.2C10720,180,10880,212,11040,187.8C11200,163,11360,82,11440,40.8L11520,0L11520,490L11440,490C11360,490,11200,490,11040,490C10880,490,10720,490,10560,490C10400,490,10240,490,10080,490C9920,490,9760,490,9600,490C9440,490,9280,490,9120,490C8960,490,8800,490,8640,490C8480,490,8320,490,8160,490C8000,490,7840,490,7680,490C7520,490,7360,490,7200,490C7040,490,6880,490,6720,490C6560,490,6400,490,6240,490C6080,490,5920,490,5760,490C5600,490,5440,490,5280,490C5120,490,4960,490,4800,490C4640,490,4480,490,4320,490C4160,490,4000,490,3840,490C3680,490,3520,490,3360,490C3200,490,3040,490,2880,490C2720,490,2560,490,2400,490C2240,490,2080,490,1920,490C1760,490,1600,490,1440,490C1280,490,1120,490,960,490C800,490,640,490,480,490C320,490,160,490,80,490L0,490Z"></path><defs><linearGradient id="sw-gradient-2" x1="0" x2="0" y1="1" y2="0"><stop stop-color="rgba(207, 80, 80, 1)" offset="0%"></stop><stop stop-color="rgba(207, 80, 80, 1)" offset="100%"></stop></linearGradient></defs><path style="transform:translate(0, 100px); opacity:0.8" fill="url(#sw-gradient-2)" d="M0,441L80,408.3C160,376,320,310,480,277.7C640,245,800,245,960,261.3C1120,278,1280,310,1440,334.8C1600,359,1760,376,1920,383.8C2080,392,2240,392,2400,334.8C2560,278,2720,163,2880,171.5C3040,180,3200,310,3360,326.7C3520,343,3680,245,3840,212.3C4000,180,4160,212,4320,245C4480,278,4640,310,4800,294C4960,278,5120,212,5280,228.7C5440,245,5600,343,5760,334.8C5920,327,6080,212,6240,147C6400,82,6560,65,6720,73.5C6880,82,7040,114,7200,138.8C7360,163,7520,180,7680,163.3C7840,147,8000,98,8160,138.8C8320,180,8480,310,8640,326.7C8800,343,8960,245,9120,228.7C9280,212,9440,278,9600,277.7C9760,278,9920,212,10080,179.7C10240,147,10400,147,10560,187.8C10720,229,10880,310,11040,359.3C11200,408,11360,425,11440,432.8L11520,441L11520,490L11440,490C11360,490,11200,490,11040,490C10880,490,10720,490,10560,490C10400,490,10240,490,10080,490C9920,490,9760,490,9600,490C9440,490,9280,490,9120,490C8960,490,8800,490,8640,490C8480,490,8320,490,8160,490C8000,490,7840,490,7680,490C7520,490,7360,490,7200,490C7040,490,6880,490,6720,490C6560,490,6400,490,6240,490C6080,490,5920,490,5760,490C5600,490,5440,490,5280,490C5120,490,4960,490,4800,490C4640,490,4480,490,4320,490C4160,490,4000,490,3840,490C3680,490,3520,490,3360,490C3200,490,3040,490,2880,490C2720,490,2560,490,2400,490C2240,490,2080,490,1920,490C1760,490,1600,490,1440,490C1280,490,1120,490,960,490C800,490,640,490,480,490C320,490,160,490,80,490L0,490Z"></path></svg>