<svg id="wave" style="transform:rotate(180deg); transition: 0.3s" viewBox="0 0 1440 490" version="1.1" xmlns="http://www.w3.org/2000/svg"><defs><linearGradient id="sw-gradient-0" x1="0" x2="0" y1="1" y2="0"><stop stop-color="rgba(242, 230, 219, 1)" offset="0%"></stop><stop stop-color="rgba(221, 205, 195, 1)" offset="100%"></stop></linearGradient></defs><path style="transform:translate(0, 0px); opacity:1" fill="url(#sw-gradient-0)" d="M0,245L34.3,236.8C68.6,229,137,212,206,171.5C274.3,131,343,65,411,57.2C480,49,549,98,617,130.7C685.7,163,754,180,823,163.3C891.4,147,960,98,1029,65.3C1097.1,33,1166,16,1234,57.2C1302.9,98,1371,196,1440,253.2C1508.6,310,1577,327,1646,285.8C1714.3,245,1783,147,1851,147C1920,147,1989,245,2057,245C2125.7,245,2194,147,2263,98C2331.4,49,2400,49,2469,49C2537.1,49,2606,49,2674,49C2742.9,49,2811,49,2880,73.5C2948.6,98,3017,147,3086,204.2C3154.3,261,3223,327,3291,334.8C3360,343,3429,294,3497,285.8C3565.7,278,3634,310,3703,285.8C3771.4,261,3840,180,3909,171.5C3977.1,163,4046,229,4114,236.8C4182.9,245,4251,196,4320,220.5C4388.6,245,4457,343,4526,318.5C4594.3,294,4663,147,4731,130.7C4800,114,4869,229,4903,285.8L4937.1,343L4937.1,490L4902.9,490C4868.6,490,4800,490,4731,490C4662.9,490,4594,490,4526,490C4457.1,490,4389,490,4320,490C4251.4,490,4183,490,4114,490C4045.7,490,3977,490,3909,490C3840,490,3771,490,3703,490C3634.3,490,3566,490,3497,490C3428.6,490,3360,490,3291,490C3222.9,490,3154,490,3086,490C3017.1,490,2949,490,2880,490C2811.4,490,2743,490,2674,490C2605.7,490,2537,490,2469,490C2400,490,2331,490,2263,490C2194.3,490,2126,490,2057,490C1988.6,490,1920,490,1851,490C1782.9,490,1714,490,1646,490C1577.1,490,1509,490,1440,490C1371.4,490,1303,490,1234,490C1165.7,490,1097,490,1029,490C960,490,891,490,823,490C754.3,490,686,490,617,490C548.6,490,480,490,411,490C342.9,490,274,490,206,490C137.1,490,69,490,34,490L0,490Z"></path><defs><linearGradient id="sw-gradient-1" x1="0" x2="0" y1="1" y2="0"><stop stop-color="rgba(242, 230, 219, 1)" offset="0%"></stop><stop stop-color="rgba(242, 230, 219, 1)" offset="100%"></stop></linearGradient></defs><path style="transform:translate(0, 50px); opacity:0.9" fill="url(#sw-gradient-1)" d="M0,441L34.3,424.7C68.6,408,137,376,206,375.7C274.3,376,343,408,411,416.5C480,425,549,408,617,367.5C685.7,327,754,261,823,228.7C891.4,196,960,196,1029,171.5C1097.1,147,1166,98,1234,138.8C1302.9,180,1371,310,1440,367.5C1508.6,425,1577,408,1646,343C1714.3,278,1783,163,1851,163.3C1920,163,1989,278,2057,269.5C2125.7,261,2194,131,2263,73.5C2331.4,16,2400,33,2469,81.7C2537.1,131,2606,212,2674,245C2742.9,278,2811,261,2880,285.8C2948.6,310,3017,376,3086,392C3154.3,408,3223,376,3291,302.2C3360,229,3429,114,3497,130.7C3565.7,147,3634,294,3703,294C3771.4,294,3840,147,3909,81.7C3977.1,16,4046,33,4114,98C4182.9,163,4251,278,4320,318.5C4388.6,359,4457,327,4526,302.2C4594.3,278,4663,261,4731,269.5C4800,278,4869,310,4903,326.7L4937.1,343L4937.1,490L4902.9,490C4868.6,490,4800,490,4731,490C4662.9,490,4594,490,4526,490C4457.1,490,4389,490,4320,490C4251.4,490,4183,490,4114,490C4045.7,490,3977,490,3909,490C3840,490,3771,490,3703,490C3634.3,490,3566,490,3497,490C3428.6,490,3360,490,3291,490C3222.9,490,3154,490,3086,490C3017.1,490,2949,490,2880,490C2811.4,490,2743,490,2674,490C2605.7,490,2537,490,2469,490C2400,490,2331,490,2263,490C2194.3,490,2126,490,2057,490C1988.6,490,1920,490,1851,490C1782.9,490,1714,490,1646,490C1577.1,490,1509,490,1440,490C1371.4,490,1303,490,1234,490C1165.7,490,1097,490,1029,490C960,490,891,490,823,490C754.3,490,686,490,617,490C548.6,490,480,490,411,490C342.9,490,274,490,206,490C137.1,490,69,490,34,490L0,490Z"></path><defs><linearGradient id="sw-gradient-2" x1="0" x2="0" y1="1" y2="0"><stop stop-color="rgba(242, 230, 219, 1)" offset="0%"></stop><stop stop-color="rgba(221, 205, 195, 1)" offset="100%"></stop></linearGradient></defs><path style="transform:translate(0, 100px); opacity:0.8" fill="url(#sw-gradient-2)" d="M0,0L34.3,0C68.6,0,137,0,206,32.7C274.3,65,343,131,411,179.7C480,229,549,261,617,294C685.7,327,754,359,823,359.3C891.4,359,960,327,1029,310.3C1097.1,294,1166,294,1234,277.7C1302.9,261,1371,229,1440,196C1508.6,163,1577,131,1646,106.2C1714.3,82,1783,65,1851,114.3C1920,163,1989,278,2057,285.8C2125.7,294,2194,196,2263,179.7C2331.4,163,2400,229,2469,228.7C2537.1,229,2606,163,2674,130.7C2742.9,98,2811,98,2880,147C2948.6,196,3017,294,3086,343C3154.3,392,3223,392,3291,375.7C3360,359,3429,327,3497,294C3565.7,261,3634,229,3703,196C3771.4,163,3840,131,3909,122.5C3977.1,114,4046,131,4114,114.3C4182.9,98,4251,49,4320,40.8C4388.6,33,4457,65,4526,130.7C4594.3,196,4663,294,4731,334.8C4800,376,4869,359,4903,351.2L4937.1,343L4937.1,490L4902.9,490C4868.6,490,4800,490,4731,490C4662.9,490,4594,490,4526,490C4457.1,490,4389,490,4320,490C4251.4,490,4183,490,4114,490C4045.7,490,3977,490,3909,490C3840,490,3771,490,3703,490C3634.3,490,3566,490,3497,490C3428.6,490,3360,490,3291,490C3222.9,490,3154,490,3086,490C3017.1,490,2949,490,2880,490C2811.4,490,2743,490,2674,490C2605.7,490,2537,490,2469,490C2400,490,2331,490,2263,490C2194.3,490,2126,490,2057,490C1988.6,490,1920,490,1851,490C1782.9,490,1714,490,1646,490C1577.1,490,1509,490,1440,490C1371.4,490,1303,490,1234,490C1165.7,490,1097,490,1029,490C960,490,891,490,823,490C754.3,490,686,490,617,490C548.6,490,480,490,411,490C342.9,490,274,490,206,490C137.1,490,69,490,34,490L0,490Z"></path></svg>