<svg id="wave" style="transform:rotate(0deg); transition: 0.3s" viewBox="0 0 1440 260" version="1.1" xmlns="http://www.w3.org/2000/svg"><defs><linearGradient id="sw-gradient-0" x1="0" x2="0" y1="1" y2="0"><stop stop-color="rgba(253, 236, 225, 1)" offset="0%"></stop><stop stop-color="rgba(248.54, 248.54, 248.54, 1)" offset="100%"></stop></linearGradient></defs><path style="transform:translate(0, 0px); opacity:1" fill="url(#sw-gradient-0)" d="M0,182L60,182C120,182,240,182,360,164.7C480,147,600,113,720,121.3C840,130,960,182,1080,195C1200,208,1320,182,1440,160.3C1560,139,1680,121,1800,117C1920,113,2040,121,2160,112.7C2280,104,2400,78,2520,56.3C2640,35,2760,17,2880,21.7C3000,26,3120,52,3240,65C3360,78,3480,78,3600,91C3720,104,3840,130,3960,134.3C4080,139,4200,121,4320,130C4440,139,4560,173,4680,156C4800,139,4920,69,5040,56.3C5160,43,5280,87,5400,117C5520,147,5640,165,5760,156C5880,147,6000,113,6120,82.3C6240,52,6360,26,6480,34.7C6600,43,6720,87,6840,91C6960,95,7080,61,7200,56.3C7320,52,7440,78,7560,91C7680,104,7800,104,7920,91C8040,78,8160,52,8280,73.7C8400,95,8520,165,8580,199.3L8640,234L8640,260L8580,260C8520,260,8400,260,8280,260C8160,260,8040,260,7920,260C7800,260,7680,260,7560,260C7440,260,7320,260,7200,260C7080,260,6960,260,6840,260C6720,260,6600,260,6480,260C6360,260,6240,260,6120,260C6000,260,5880,260,5760,260C5640,260,5520,260,5400,260C5280,260,5160,260,5040,260C4920,260,4800,260,4680,260C4560,260,4440,260,4320,260C4200,260,4080,260,3960,260C3840,260,3720,260,3600,260C3480,260,3360,260,3240,260C3120,260,3000,260,2880,260C2760,260,2640,260,2520,260C2400,260,2280,260,2160,260C2040,260,1920,260,1800,260C1680,260,1560,260,1440,260C1320,260,1200,260,1080,260C960,260,840,260,720,260C600,260,480,260,360,260C240,260,120,260,60,260L0,260Z"></path></svg>