<svg id="wave" style="transform:rotate(0deg); transition: 0.3s" viewBox="0 0 1440 160" version="1.1" xmlns="http://www.w3.org/2000/svg"><defs><linearGradient id="sw-gradient-0" x1="0" x2="0" y1="1" y2="0"><stop stop-color="rgba(241, 230, 218, 1)" offset="0%"></stop><stop stop-color="rgba(189, 229, 153, 1)" offset="100%"></stop></linearGradient></defs><path style="transform:translate(0, 0px); opacity:1" fill="url(#sw-gradient-0)" d="M0,144L20,133.3C40,123,80,101,120,93.3C160,85,200,91,240,93.3C280,96,320,96,360,101.3C400,107,440,117,480,104C520,91,560,53,600,40C640,27,680,37,720,58.7C760,80,800,112,840,112C880,112,920,80,960,80C1000,80,1040,112,1080,109.3C1120,107,1160,69,1200,64C1240,59,1280,85,1320,80C1360,75,1400,37,1440,37.3C1480,37,1520,75,1560,82.7C1600,91,1640,69,1680,53.3C1720,37,1760,27,1800,37.3C1840,48,1880,80,1920,101.3C1960,123,2000,133,2040,128C2080,123,2120,101,2160,101.3C2200,101,2240,123,2280,120C2320,117,2360,91,2400,90.7C2440,91,2480,117,2520,122.7C2560,128,2600,112,2640,98.7C2680,85,2720,75,2760,69.3C2800,64,2840,64,2860,64L2880,64L2880,160L2860,160C2840,160,2800,160,2760,160C2720,160,2680,160,2640,160C2600,160,2560,160,2520,160C2480,160,2440,160,2400,160C2360,160,2320,160,2280,160C2240,160,2200,160,2160,160C2120,160,2080,160,2040,160C2000,160,1960,160,1920,160C1880,160,1840,160,1800,160C1760,160,1720,160,1680,160C1640,160,1600,160,1560,160C1520,160,1480,160,1440,160C1400,160,1360,160,1320,160C1280,160,1240,160,1200,160C1160,160,1120,160,1080,160C1040,160,1000,160,960,160C920,160,880,160,840,160C800,160,760,160,720,160C680,160,640,160,600,160C560,160,520,160,480,160C440,160,400,160,360,160C320,160,280,160,240,160C200,160,160,160,120,160C80,160,40,160,20,160L0,160Z"></path></svg>