<svg id="wave" style="transform:rotate(180deg); transition: 0.3s" viewBox="0 0 1440 490" version="1.1" xmlns="http://www.w3.org/2000/svg"><defs><linearGradient id="sw-gradient-0" x1="0" x2="0" y1="1" y2="0"><stop stop-color="rgba(203.943, 234.424, 164.997, 1)" offset="0%"></stop><stop stop-color="rgba(172, 218, 119, 1)" offset="100%"></stop></linearGradient></defs><path style="transform:translate(0, 0px); opacity:1" fill="url(#sw-gradient-0)" d="M0,98L80,155.2C160,212,320,327,480,359.3C640,392,800,343,960,294C1120,245,1280,196,1440,171.5C1600,147,1760,147,1920,196C2080,245,2240,343,2400,351.2C2560,359,2720,278,2880,253.2C3040,229,3200,261,3360,302.2C3520,343,3680,392,3840,408.3C4000,425,4160,408,4320,400.2C4480,392,4640,392,4800,334.8C4960,278,5120,163,5280,106.2C5440,49,5600,49,5760,40.8C5920,33,6080,16,6240,57.2C6400,98,6560,196,6720,261.3C6880,327,7040,359,7200,318.5C7360,278,7520,163,7680,130.7C7840,98,8000,147,8160,138.8C8320,131,8480,65,8640,89.8C8800,114,8960,229,9120,269.5C9280,310,9440,278,9600,269.5C9760,261,9920,278,10080,253.2C10240,229,10400,163,10560,155.2C10720,147,10880,196,11040,245C11200,294,11360,343,11440,367.5L11520,392L11520,490L11440,490C11360,490,11200,490,11040,490C10880,490,10720,490,10560,490C10400,490,10240,490,10080,490C9920,490,9760,490,9600,490C9440,490,9280,490,9120,490C8960,490,8800,490,8640,490C8480,490,8320,490,8160,490C8000,490,7840,490,7680,490C7520,490,7360,490,7200,490C7040,490,6880,490,6720,490C6560,490,6400,490,6240,490C6080,490,5920,490,5760,490C5600,490,5440,490,5280,490C5120,490,4960,490,4800,490C4640,490,4480,490,4320,490C4160,490,4000,490,3840,490C3680,490,3520,490,3360,490C3200,490,3040,490,2880,490C2720,490,2560,490,2400,490C2240,490,2080,490,1920,490C1760,490,1600,490,1440,490C1280,490,1120,490,960,490C800,490,640,490,480,490C320,490,160,490,80,490L0,490Z"></path><defs><linearGradient id="sw-gradient-1" x1="0" x2="0" y1="1" y2="0"><stop stop-color="rgba(176.306, 216.209, 125.318, 1)" offset="0%"></stop><stop stop-color="rgba(172, 218, 119, 1)" offset="100%"></stop></linearGradient></defs><path style="transform:translate(0, 50px); opacity:0.9" fill="url(#sw-gradient-1)" d="M0,392L80,326.7C160,261,320,131,480,73.5C640,16,800,33,960,40.8C1120,49,1280,49,1440,73.5C1600,98,1760,147,1920,204.2C2080,261,2240,327,2400,302.2C2560,278,2720,163,2880,138.8C3040,114,3200,180,3360,212.3C3520,245,3680,245,3840,277.7C4000,310,4160,376,4320,383.8C4480,392,4640,343,4800,285.8C4960,229,5120,163,5280,114.3C5440,65,5600,33,5760,89.8C5920,147,6080,294,6240,318.5C6400,343,6560,245,6720,171.5C6880,98,7040,49,7200,73.5C7360,98,7520,196,7680,269.5C7840,343,8000,392,8160,400.2C8320,408,8480,376,8640,334.8C8800,294,8960,245,9120,236.8C9280,229,9440,261,9600,277.7C9760,294,9920,294,10080,261.3C10240,229,10400,163,10560,179.7C10720,196,10880,294,11040,277.7C11200,261,11360,131,11440,65.3L11520,0L11520,490L11440,490C11360,490,11200,490,11040,490C10880,490,10720,490,10560,490C10400,490,10240,490,10080,490C9920,490,9760,490,9600,490C9440,490,9280,490,9120,490C8960,490,8800,490,8640,490C8480,490,8320,490,8160,490C8000,490,7840,490,7680,490C7520,490,7360,490,7200,490C7040,490,6880,490,6720,490C6560,490,6400,490,6240,490C6080,490,5920,490,5760,490C5600,490,5440,490,5280,490C5120,490,4960,490,4800,490C4640,490,4480,490,4320,490C4160,490,4000,490,3840,490C3680,490,3520,490,3360,490C3200,490,3040,490,2880,490C2720,490,2560,490,2400,490C2240,490,2080,490,1920,490C1760,490,1600,490,1440,490C1280,490,1120,490,960,490C800,490,640,490,480,490C320,490,160,490,80,490L0,490Z"></path><defs><linearGradient id="sw-gradient-2" x1="0" x2="0" y1="1" y2="0"><stop stop-color="rgba(172, 218, 119, 1)" offset="0%"></stop><stop stop-color="rgba(211.082, 241.254, 172.529, 1)" offset="100%"></stop></linearGradient></defs><path style="transform:translate(0, 100px); opacity:0.8" fill="url(#sw-gradient-2)" d="M0,49L80,98C160,147,320,245,480,236.8C640,229,800,114,960,57.2C1120,0,1280,0,1440,65.3C1600,131,1760,261,1920,294C2080,327,2240,261,2400,253.2C2560,245,2720,294,2880,334.8C3040,376,3200,408,3360,408.3C3520,408,3680,376,3840,326.7C4000,278,4160,212,4320,196C4480,180,4640,212,4800,204.2C4960,196,5120,147,5280,147C5440,147,5600,196,5760,204.2C5920,212,6080,180,6240,155.2C6400,131,6560,114,6720,147C6880,180,7040,261,7200,302.2C7360,343,7520,343,7680,351.2C7840,359,8000,376,8160,383.8C8320,392,8480,392,8640,383.8C8800,376,8960,359,9120,351.2C9280,343,9440,343,9600,302.2C9760,261,9920,180,10080,171.5C10240,163,10400,229,10560,212.3C10720,196,10880,98,11040,81.7C11200,65,11360,131,11440,163.3L11520,196L11520,490L11440,490C11360,490,11200,490,11040,490C10880,490,10720,490,10560,490C10400,490,10240,490,10080,490C9920,490,9760,490,9600,490C9440,490,9280,490,9120,490C8960,490,8800,490,8640,490C8480,490,8320,490,8160,490C8000,490,7840,490,7680,490C7520,490,7360,490,7200,490C7040,490,6880,490,6720,490C6560,490,6400,490,6240,490C6080,490,5920,490,5760,490C5600,490,5440,490,5280,490C5120,490,4960,490,4800,490C4640,490,4480,490,4320,490C4160,490,4000,490,3840,490C3680,490,3520,490,3360,490C3200,490,3040,490,2880,490C2720,490,2560,490,2400,490C2240,490,2080,490,1920,490C1760,490,1600,490,1440,490C1280,490,1120,490,960,490C800,490,640,490,480,490C320,490,160,490,80,490L0,490Z"></path></svg>