<svg id="wave" style="transform:rotate(0deg); transition: 0.3s" viewBox="0 0 1440 200" version="1.1" xmlns="http://www.w3.org/2000/svg"><defs><linearGradient id="sw-gradient-0" x1="0" x2="0" y1="1" y2="0"><stop stop-color="rgba(187, 224, 139, 1)" offset="0%"></stop><stop stop-color="rgba(207, 80, 80, 1)" offset="100%"></stop></linearGradient></defs><path style="transform:translate(0, 0px); opacity:1" fill="url(#sw-gradient-0)" d="M0,40L40,36.7C80,33,160,27,240,46.7C320,67,400,113,480,126.7C560,140,640,120,720,96.7C800,73,880,47,960,43.3C1040,40,1120,60,1200,80C1280,100,1360,120,1440,130C1520,140,1600,140,1680,133.3C1760,127,1840,113,1920,110C2000,107,2080,113,2160,100C2240,87,2320,53,2400,63.3C2480,73,2560,127,2640,136.7C2720,147,2800,113,2880,90C2960,67,3040,53,3120,66.7C3200,80,3280,120,3360,140C3440,160,3520,160,3600,143.3C3680,127,3760,93,3840,73.3C3920,53,4000,47,4080,36.7C4160,27,4240,13,4320,30C4400,47,4480,93,4560,113.3C4640,133,4720,127,4800,123.3C4880,120,4960,120,5040,103.3C5120,87,5200,53,5280,40C5360,27,5440,33,5520,46.7C5600,60,5680,80,5720,90L5760,100L5760,200L5720,200C5680,200,5600,200,5520,200C5440,200,5360,200,5280,200C5200,200,5120,200,5040,200C4960,200,4880,200,4800,200C4720,200,4640,200,4560,200C4480,200,4400,200,4320,200C4240,200,4160,200,4080,200C4000,200,3920,200,3840,200C3760,200,3680,200,3600,200C3520,200,3440,200,3360,200C3280,200,3200,200,3120,200C3040,200,2960,200,2880,200C2800,200,2720,200,2640,200C2560,200,2480,200,2400,200C2320,200,2240,200,2160,200C2080,200,2000,200,1920,200C1840,200,1760,200,1680,200C1600,200,1520,200,1440,200C1360,200,1280,200,1200,200C1120,200,1040,200,960,200C880,200,800,200,720,200C640,200,560,200,480,200C400,200,320,200,240,200C160,200,80,200,40,200L0,200Z"></path><defs><linearGradient id="sw-gradient-1" x1="0" x2="0" y1="1" y2="0"><stop stop-color="rgba(187, 224, 139, 1)" offset="0%"></stop><stop stop-color="rgba(210.62, 232.602, 182.102, 1)" offset="100%"></stop></linearGradient></defs><path style="transform:translate(0, 50px); opacity:0.9" fill="url(#sw-gradient-1)" d="M0,160L40,156.7C80,153,160,147,240,150C320,153,400,167,480,156.7C560,147,640,113,720,100C800,87,880,93,960,86.7C1040,80,1120,60,1200,53.3C1280,47,1360,53,1440,76.7C1520,100,1600,140,1680,156.7C1760,173,1840,167,1920,140C2000,113,2080,67,2160,40C2240,13,2320,7,2400,16.7C2480,27,2560,53,2640,76.7C2720,100,2800,120,2880,110C2960,100,3040,60,3120,50C3200,40,3280,60,3360,86.7C3440,113,3520,147,3600,163.3C3680,180,3760,180,3840,180C3920,180,4000,180,4080,173.3C4160,167,4240,153,4320,140C4400,127,4480,113,4560,120C4640,127,4720,153,4800,150C4880,147,4960,113,5040,106.7C5120,100,5200,120,5280,110C5360,100,5440,60,5520,40C5600,20,5680,20,5720,20L5760,20L5760,200L5720,200C5680,200,5600,200,5520,200C5440,200,5360,200,5280,200C5200,200,5120,200,5040,200C4960,200,4880,200,4800,200C4720,200,4640,200,4560,200C4480,200,4400,200,4320,200C4240,200,4160,200,4080,200C4000,200,3920,200,3840,200C3760,200,3680,200,3600,200C3520,200,3440,200,3360,200C3280,200,3200,200,3120,200C3040,200,2960,200,2880,200C2800,200,2720,200,2640,200C2560,200,2480,200,2400,200C2320,200,2240,200,2160,200C2080,200,2000,200,1920,200C1840,200,1760,200,1680,200C1600,200,1520,200,1440,200C1360,200,1280,200,1200,200C1120,200,1040,200,960,200C880,200,800,200,720,200C640,200,560,200,480,200C400,200,320,200,240,200C160,200,80,200,40,200L0,200Z"></path></svg>