<!--?xml version="1.0" standalone="no"?-->              <svg id="sw-js-blob-svg" viewBox="0 0 100 100" xmlns="http://www.w3.org/2000/svg">                    <defs>                         <linearGradient id="sw-gradient" x1="0" x2="1" y1="1" y2="0">                            <stop id="stop1" stop-color="rgba(141, 198, 63, 1)" offset="0%"></stop>                            <stop id="stop2" stop-color="rgba(237.37, 255, 213.244, 1)" offset="100%"></stop>                        </linearGradient>                    </defs>                <path fill="url(#sw-gradient)" d="M21.1,-25.4C27.2,-20,31.8,-13.2,35.1,-4.7C38.3,3.8,40.1,14,36.3,21.3C32.5,28.6,23,32.9,13.8,35C4.6,37,-4.3,36.7,-11.6,33.4C-19,30.1,-24.7,23.9,-30,16.5C-35.2,9.1,-40,0.6,-38.6,-6.7C-37.1,-13.9,-29.4,-19.9,-22,-25C-14.5,-30.1,-7.2,-34.4,0.1,-34.5C7.5,-34.7,15,-30.7,21.1,-25.4Z" width="100%" height="100%" transform="translate(50 50)" stroke-width="0" style="transition: all 0.3s ease 0s;" stroke="url(#sw-gradient)"></path>              </svg>