<svg id="wave" style="transform:rotate(0deg); transition: 0.3s" viewBox="0 0 1440 110" version="1.1" xmlns="http://www.w3.org/2000/svg"><defs><linearGradient id="sw-gradient-0" x1="0" x2="0" y1="1" y2="0"><stop stop-color="rgba(207, 80, 80, 1)" offset="0%"></stop><stop stop-color="rgba(241, 228, 218, 1)" offset="100%"></stop></linearGradient></defs><path style="transform:translate(0, 0px); opacity:1" fill="url(#sw-gradient-0)" d="M0,33L40,36.7C80,40,160,48,240,58.7C320,70,400,84,480,75.2C560,66,640,33,720,29.3C800,26,880,51,960,53.2C1040,55,1120,33,1200,23.8C1280,15,1360,18,1440,20.2C1520,22,1600,22,1680,27.5C1760,33,1840,44,1920,44C2000,44,2080,33,2160,34.8C2240,37,2320,51,2400,58.7C2480,66,2560,66,2640,56.8C2720,48,2800,29,2880,18.3C2960,7,3040,4,3120,18.3C3200,33,3280,66,3360,80.7C3440,95,3520,92,3600,75.2C3680,59,3760,29,3840,29.3C3920,29,4000,59,4080,60.5C4160,62,4240,37,4320,33C4400,29,4480,48,4560,49.5C4640,51,4720,37,4800,40.3C4880,44,4960,66,5040,67.8C5120,70,5200,51,5280,53.2C5360,55,5440,77,5520,73.3C5600,70,5680,40,5720,25.7L5760,11L5760,110L5720,110C5680,110,5600,110,5520,110C5440,110,5360,110,5280,110C5200,110,5120,110,5040,110C4960,110,4880,110,4800,110C4720,110,4640,110,4560,110C4480,110,4400,110,4320,110C4240,110,4160,110,4080,110C4000,110,3920,110,3840,110C3760,110,3680,110,3600,110C3520,110,3440,110,3360,110C3280,110,3200,110,3120,110C3040,110,2960,110,2880,110C2800,110,2720,110,2640,110C2560,110,2480,110,2400,110C2320,110,2240,110,2160,110C2080,110,2000,110,1920,110C1840,110,1760,110,1680,110C1600,110,1520,110,1440,110C1360,110,1280,110,1200,110C1120,110,1040,110,960,110C880,110,800,110,720,110C640,110,560,110,480,110C400,110,320,110,240,110C160,110,80,110,40,110L0,110Z"></path></svg>