<svg id="wave" style="transform:rotate(180deg); transition: 0.3s" viewBox="0 0 1440 490" version="1.1" xmlns="http://www.w3.org/2000/svg"><defs><linearGradient id="sw-gradient-0" x1="0" x2="0" y1="1" y2="0"><stop stop-color="rgba(243.708, 255, 219.795, 1)" offset="0%"></stop><stop stop-color="rgba(165, 214, 108, 1)" offset="100%"></stop></linearGradient></defs><path style="transform:translate(0, 0px); opacity:1" fill="url(#sw-gradient-0)" d="M0,392L34.3,359.3C68.6,327,137,261,206,228.7C274.3,196,343,196,411,179.7C480,163,549,131,617,147C685.7,163,754,229,823,212.3C891.4,196,960,98,1029,49C1097.1,0,1166,0,1234,32.7C1302.9,65,1371,131,1440,147C1508.6,163,1577,131,1646,147C1714.3,163,1783,229,1851,285.8C1920,343,1989,392,2057,351.2C2125.7,310,2194,180,2263,171.5C2331.4,163,2400,278,2469,334.8C2537.1,392,2606,392,2674,326.7C2742.9,261,2811,131,2880,130.7C2948.6,131,3017,261,3086,334.8C3154.3,408,3223,425,3291,400.2C3360,376,3429,310,3497,302.2C3565.7,294,3634,343,3703,351.2C3771.4,359,3840,327,3909,302.2C3977.1,278,4046,261,4114,285.8C4182.9,310,4251,376,4320,400.2C4388.6,425,4457,408,4526,392C4594.3,376,4663,359,4731,367.5C4800,376,4869,408,4903,424.7L4937.1,441L4937.1,490L4902.9,490C4868.6,490,4800,490,4731,490C4662.9,490,4594,490,4526,490C4457.1,490,4389,490,4320,490C4251.4,490,4183,490,4114,490C4045.7,490,3977,490,3909,490C3840,490,3771,490,3703,490C3634.3,490,3566,490,3497,490C3428.6,490,3360,490,3291,490C3222.9,490,3154,490,3086,490C3017.1,490,2949,490,2880,490C2811.4,490,2743,490,2674,490C2605.7,490,2537,490,2469,490C2400,490,2331,490,2263,490C2194.3,490,2126,490,2057,490C1988.6,490,1920,490,1851,490C1782.9,490,1714,490,1646,490C1577.1,490,1509,490,1440,490C1371.4,490,1303,490,1234,490C1165.7,490,1097,490,1029,490C960,490,891,490,823,490C754.3,490,686,490,617,490C548.6,490,480,490,411,490C342.9,490,274,490,206,490C137.1,490,69,490,34,490L0,490Z"></path><defs><linearGradient id="sw-gradient-1" x1="0" x2="0" y1="1" y2="0"><stop stop-color="rgba(208, 225, 172, 1)" offset="0%"></stop><stop stop-color="rgba(165, 214, 108, 1)" offset="100%"></stop></linearGradient></defs><path style="transform:translate(0, 50px); opacity:0.9" fill="url(#sw-gradient-1)" d="M0,49L34.3,98C68.6,147,137,245,206,253.2C274.3,261,343,180,411,147C480,114,549,131,617,187.8C685.7,245,754,343,823,343C891.4,343,960,245,1029,228.7C1097.1,212,1166,278,1234,285.8C1302.9,294,1371,245,1440,196C1508.6,147,1577,98,1646,138.8C1714.3,180,1783,310,1851,310.3C1920,310,1989,180,2057,179.7C2125.7,180,2194,310,2263,310.3C2331.4,310,2400,180,2469,130.7C2537.1,82,2606,114,2674,114.3C2742.9,114,2811,82,2880,114.3C2948.6,147,3017,245,3086,277.7C3154.3,310,3223,278,3291,245C3360,212,3429,180,3497,147C3565.7,114,3634,82,3703,81.7C3771.4,82,3840,114,3909,138.8C3977.1,163,4046,180,4114,228.7C4182.9,278,4251,359,4320,343C4388.6,327,4457,212,4526,204.2C4594.3,196,4663,294,4731,343C4800,392,4869,392,4903,392L4937.1,392L4937.1,490L4902.9,490C4868.6,490,4800,490,4731,490C4662.9,490,4594,490,4526,490C4457.1,490,4389,490,4320,490C4251.4,490,4183,490,4114,490C4045.7,490,3977,490,3909,490C3840,490,3771,490,3703,490C3634.3,490,3566,490,3497,490C3428.6,490,3360,490,3291,490C3222.9,490,3154,490,3086,490C3017.1,490,2949,490,2880,490C2811.4,490,2743,490,2674,490C2605.7,490,2537,490,2469,490C2400,490,2331,490,2263,490C2194.3,490,2126,490,2057,490C1988.6,490,1920,490,1851,490C1782.9,490,1714,490,1646,490C1577.1,490,1509,490,1440,490C1371.4,490,1303,490,1234,490C1165.7,490,1097,490,1029,490C960,490,891,490,823,490C754.3,490,686,490,617,490C548.6,490,480,490,411,490C342.9,490,274,490,206,490C137.1,490,69,490,34,490L0,490Z"></path><defs><linearGradient id="sw-gradient-2" x1="0" x2="0" y1="1" y2="0"><stop stop-color="rgba(165, 214, 108, 1)" offset="0%"></stop><stop stop-color="rgba(240.475, 255, 209.716, 1)" offset="100%"></stop></linearGradient></defs><path style="transform:translate(0, 100px); opacity:0.8" fill="url(#sw-gradient-2)" d="M0,49L34.3,57.2C68.6,65,137,82,206,147C274.3,212,343,327,411,334.8C480,343,549,245,617,204.2C685.7,163,754,180,823,163.3C891.4,147,960,98,1029,130.7C1097.1,163,1166,278,1234,326.7C1302.9,376,1371,359,1440,318.5C1508.6,278,1577,212,1646,163.3C1714.3,114,1783,82,1851,89.8C1920,98,1989,147,2057,179.7C2125.7,212,2194,229,2263,261.3C2331.4,294,2400,343,2469,343C2537.1,343,2606,294,2674,277.7C2742.9,261,2811,278,2880,302.2C2948.6,327,3017,359,3086,334.8C3154.3,310,3223,229,3291,196C3360,163,3429,180,3497,228.7C3565.7,278,3634,359,3703,343C3771.4,327,3840,212,3909,212.3C3977.1,212,4046,327,4114,334.8C4182.9,343,4251,245,4320,187.8C4388.6,131,4457,114,4526,122.5C4594.3,131,4663,163,4731,179.7C4800,196,4869,196,4903,196L4937.1,196L4937.1,490L4902.9,490C4868.6,490,4800,490,4731,490C4662.9,490,4594,490,4526,490C4457.1,490,4389,490,4320,490C4251.4,490,4183,490,4114,490C4045.7,490,3977,490,3909,490C3840,490,3771,490,3703,490C3634.3,490,3566,490,3497,490C3428.6,490,3360,490,3291,490C3222.9,490,3154,490,3086,490C3017.1,490,2949,490,2880,490C2811.4,490,2743,490,2674,490C2605.7,490,2537,490,2469,490C2400,490,2331,490,2263,490C2194.3,490,2126,490,2057,490C1988.6,490,1920,490,1851,490C1782.9,490,1714,490,1646,490C1577.1,490,1509,490,1440,490C1371.4,490,1303,490,1234,490C1165.7,490,1097,490,1029,490C960,490,891,490,823,490C754.3,490,686,490,617,490C548.6,490,480,490,411,490C342.9,490,274,490,206,490C137.1,490,69,490,34,490L0,490Z"></path></svg>